<?xml version="1.0" encoding="UTF-8"?>
<svg id="Layer_1" data-name="Layer 1" xmlns="http://www.w3.org/2000/svg" xmlns:xlink="http://www.w3.org/1999/xlink" viewBox="0 0 1366 441.64">
  <defs>
    <style>
      .cls-1 {
        fill: url(#linear-gradient);
      }

      .cls-2 {
        fill: url(#New_Gradient_Swatch_1);
      }
    </style>
    <linearGradient id="New_Gradient_Swatch_1" data-name="New Gradient Swatch 1" x1="94.56" y1="200.92" x2="131.42" y2="179.64" gradientUnits="userSpaceOnUse">
      <stop offset="0" stop-color="#4338ca"/>
      <stop offset=".5" stop-color="#6d29d8"/>
      <stop offset="1" stop-color="#3830a4"/>
    </linearGradient>
    <linearGradient id="linear-gradient" x1="31.28" y1="328.89" x2="411.58" y2="109.32" gradientUnits="userSpaceOnUse">
      <stop offset=".05" stop-color="#4338ca"/>
      <stop offset=".23" stop-color="#5830d1"/>
      <stop offset=".43" stop-color="#6d29d8"/>
      <stop offset=".57" stop-color="#6d29d8"/>
      <stop offset=".67" stop-color="#6529d0"/>
      <stop offset=".82" stop-color="#522cbd"/>
      <stop offset=".96" stop-color="#3830a4"/>
    </linearGradient>
  </defs>
  <g>
    <path class="cls-2" d="M116.66,174.42h-17.75v34.04h17.4c11.89,0,18.71-6.26,18.71-17.19s-6.7-16.85-18.37-16.85Z"/>
    <path class="cls-1" d="M219.87,2.27C99.62,2.27,2.14,99.75,2.14,220s97.48,217.73,217.73,217.73,217.73-97.48,217.73-217.73S340.12,2.27,219.87,2.27ZM120.72,230.14h-21.8v60.28h-27.08v-139.02h46.85c13.87,0,24.7,3.89,32.21,11.58,7.23,7.41,11.06,17.14,11.06,28.13,0,23.71-16.18,39.04-41.24,39.04ZM277,177.04h-13.7c-9.24,0-24.66,4.37-24.98,33.1h38.68v22.19h-38.75c-.37,34.39-21.88,58.35-52.61,58.35h-11.21v-25.14h11.21c25.09,0,27.35-26.03,27.5-33.21h-38.7v-22.19h38.75c.31-35.94,19.44-58.24,50.12-58.24h13.7v25.14ZM304.17,290.42v-139.02h26.24v116.13h46.17v22.89h-72.41Z"/>
  </g>
  <g>
    <path d="M545.29,144.12h30.91l51.92,147.31h-31.11l-9.89-31.32h-53.15l-9.68,31.32h-30.29l51.3-147.31ZM540.96,237.25h38.94l-13.19-42.44c-2.47-7.83-5.98-22.67-5.98-22.67h-.41s-3.71,14.83-6.18,22.67l-13.19,42.44Z"/>
    <path d="M632.03,238.69c0-31.52,20.6-55.84,52.74-55.84,27.4,0,44.3,15.87,48,38.74h-27.4c-1.86-9.27-9.06-16.28-19.37-16.28-16.9,0-25.55,12.98-25.55,33.38s8.04,33.38,25.14,33.38c11.33,0,19.37-5.98,21.22-17.93h26.99c-1.86,22.46-19.37,40.38-47.59,40.38-33.38,0-54.19-24.31-54.19-55.84Z"/>
    <path d="M814.36,279.69h-.41c-5.36,8.04-12.98,14.22-31.11,14.22-21.63,0-36.88-11.34-36.88-32.35,0-23.28,18.96-30.7,42.44-34,17.52-2.47,25.55-3.91,25.55-11.95,0-7.62-5.98-12.57-17.72-12.57-13.19,0-19.57,4.74-20.4,14.83h-24.93c.82-18.54,14.63-34.82,45.53-34.82s44.51,14.22,44.51,38.94v53.77c0,8.04,1.23,12.78,3.71,14.63v1.03h-26.99c-1.65-2.06-2.68-7.01-3.3-11.75ZM814.56,254.14v-15.86c-4.95,2.88-12.57,4.53-19.57,6.18-14.63,3.3-21.84,6.59-21.84,16.48s6.59,13.39,16.48,13.39c16.07,0,24.93-9.89,24.93-20.19Z"/>
    <path d="M856.59,238.69c0-32.96,18.75-55.84,45.12-55.84,14.84,0,24.11,6.8,29.88,15.66h.62v-54.39h28.02v147.31h-26.99v-13.8h-.41c-6.18,10.09-16.69,16.9-31.52,16.9-26.57,0-44.71-21.64-44.71-55.84ZM932.82,239.31c0-20.19-6.59-33.79-24.52-33.79-15.45,0-23.28,13.6-23.28,33.17s8.04,32.35,22.45,32.35c16.69,0,25.34-12.36,25.34-31.73Z"/>
    <path d="M976.29,238.48c0-31.32,21.22-55.63,52.13-55.63,34,0,52.13,25.96,52.13,63.66h-76.64c2.06,16.28,11.13,26.37,26.99,26.37,10.92,0,17.31-4.94,20.4-12.98h27.61c-3.91,18.75-20.6,34.62-47.8,34.62-35.03,0-54.81-24.52-54.81-56.04ZM1004.3,227.15h46.98c-.82-13.39-9.68-22.66-22.45-22.66-14.84,0-22.05,8.86-24.52,22.66Z"/>
    <path d="M1096.6,185.74h26.99v14.22h.62c5.77-9.69,16.07-17.1,30.7-17.1,13.39,0,24.11,7.42,29.26,18.54h.42c7.21-11.54,18.34-18.54,31.73-18.54,22.26,0,34.82,14.42,34.82,37.5v71.08h-28.02v-66.34c0-11.95-5.98-18.13-16.28-18.13-11.75,0-18.96,9.07-18.96,23.08v61.4h-28.02v-66.34c0-11.95-5.98-18.13-16.28-18.13-11.33,0-18.96,9.07-18.96,23.08v61.4h-28.02v-105.7Z"/>
    <path d="M1271.73,304h9.89c11.13,0,15.66-5.77,15.66-14.42,0-5.77-2.06-12.57-8.04-28.64l-28.44-75.2h29.46l15.66,47.59c3.3,9.68,6.8,23.08,6.8,23.08h.41s2.88-13.39,6.18-23.08l14.83-47.59h28.23l-36.88,108.37c-8.04,23.49-15.86,31.94-37.29,31.94h-16.48v-22.05Z"/>
  </g>
</svg>